<svg width="150" height="18" viewBox="0 0 150 18" fill="none" xmlns="http://www.w3.org/2000/svg">
<path d="M20.563 0.00238734C25.5913 0.00238952 29.705 4.08275 29.705 8.95752C29.705 13.8323 25.7473 17.7848 20.7949 17.9105H7.72582L15.627 13.7765H0L14.1942 6.35604H6.38296L15.9161 1.37656C17.6261 0.500823 19.1586 0 20.563 0V0.00238734Z" fill="#181E15"/>
<path d="M43.0079 1.16542C46.6159 1.16543 49.6958 3.11248 50.1358 6.4441H46.6819C46.4619 4.71339 44.9439 3.91293 42.964 3.91293C40.412 3.91293 38.938 4.60521 38.938 5.75181C38.938 8.75893 50.3778 5.3624 50.3778 12.0256C50.3778 16.0063 46.6379 17.0014 43.0519 17.0014C38.542 17.0014 35.3741 14.8381 35.2861 11.2036H38.674C38.74 13.1722 40.478 14.2539 43.0519 14.2539C45.4059 14.2539 47.0779 13.6266 47.0779 12.0256C47.0779 9.23487 35.6381 12.2636 35.6381 5.88161C35.6381 2.61489 39.07 1.16542 43.0079 1.16542Z" fill="#181E15"/>
<path d="M105.619 10.1435C105.619 12.8477 107.445 14.1458 109.799 14.1458C112.153 14.1458 113.979 12.8477 113.979 10.1435V1.51156H117.169V10.1435C117.169 14.427 114.155 17.0014 109.799 17.0014C105.443 17.0014 102.429 14.427 102.429 10.1435V1.51156H105.619V10.1435Z" fill="#181E15"/>
<path d="M126.189 1.16542C129.796 1.16543 132.876 3.11248 133.316 6.4441H129.862C129.642 4.71339 128.124 3.91293 126.145 3.91293C123.593 3.91293 122.119 4.60521 122.119 5.75181C122.119 8.75893 133.558 5.3624 133.558 12.0256C133.558 16.0063 129.818 17.0014 126.233 17.0014C121.723 17.0014 118.555 14.8381 118.467 11.2036H121.855C121.921 13.1722 123.659 14.2539 126.233 14.2539C128.586 14.2539 130.258 13.6266 130.258 12.0256C130.258 9.23487 118.819 12.2636 118.819 5.88161C118.819 2.61489 122.251 1.16542 126.189 1.16542Z" fill="#181E15"/>
<path d="M65.0736 4.2807H54.9977V7.59069H63.8196V10.3598H54.9977V13.8862H65.1836V16.6553H51.8078V1.51156H65.0736V4.2807Z" fill="#181E15"/>
<path d="M75.9854 12.8694L80.2753 1.51156H84.9832V16.6553H81.8593V6.03305L77.8113 16.6553H74.1594L70.1115 6.05469V16.6553H66.9875V1.51156H71.6955L75.9854 12.8694Z" fill="#181E15"/>
<path fill-rule="evenodd" clip-rule="evenodd" d="M95.169 1.51156C98.271 1.51157 100.977 2.50673 100.977 5.66528C100.977 7.59069 100.053 8.45605 98.645 8.84546H100.581V16.6553H97.391V11.117H90.3731V16.6553H87.1832V1.51156H95.169ZM90.3731 8.34788H95.169C96.709 8.34788 97.765 7.7854 97.765 6.31429C97.765 4.84319 96.709 4.28071 95.169 4.2807H90.3731V8.34788Z" fill="#181E15"/>
<path d="M138.178 7.59069H146.802V1.51156H149.992V16.6553H146.802V10.3598H138.178V16.6553H134.988V1.51156H138.178V7.59069Z" fill="#181E15"/>
</svg>
